# xmcd
# Copyright (C) 1995-1998 Ti Kan
#
# Track frame offsets:
#       150
#       24375
#       42552
#       71500
#       91448
#       114469
#       136338
#       148646
#       165467
#       187126
#       230021
#
# Disc length: 3748 seconds
#
# Revision: 0
# Processed by: cddbd v1.5.2PL0 Copyright (c) Steve Scherf et al.
# Submitted via: CD-Import v1.0
#
DISCID=9b0ea20b
DTITLE=To The Vanishing Point - This Is Where It All Began
DYEAR=2008
DGENRE=
TTITLE0=Crows
TTITLE1=Voices
TTITLE2=Blinded
TTITLE3=Anyway
TTITLE4=The Monsters Hiding Under My Bed
TTITLE5=Headache
TTITLE6=What's The Point Of Sleeping Anyway?
TTITLE7=The Quiet Son
TTITLE8=The Tide
TTITLE9=To The Vanishing Point
TTITLE10=Rid Of You
EXTD=
EXTT0=
EXTT1=
EXTT2=
EXTT3=
EXTT4=
EXTT5=
EXTT6=
EXTT7=
EXTT8=
EXTT9=
EXTT10=
PLAYORDER=
